<svg width="18" height="18" viewBox="0 0 18 18" fill="none" xmlns="http://www.w3.org/2000/svg">
<rect width="18" height="18" fill="white"/>
<path d="M9.8775 1.5H4.5C3.675 1.5 3 2.175 3 3V15C3 15.825 3.675 16.5 4.5 16.5H13.5C14.325 16.5 15 15.825 15 15V6.6225C15 6.225 14.8425 5.8425 14.5575 5.565L10.935 1.9425C10.6575 1.6575 10.275 1.5 9.8775 1.5ZM9 7.5C9.825 7.5 10.5 8.175 10.5 9C10.5 9.825 9.825 10.5 9 10.5C8.175 10.5 7.5 9.825 7.5 9C7.5 8.175 8.175 7.5 9 7.5ZM12 13.5H6V13.0725C6 12.465 6.36 11.925 6.915 11.685C7.57264 11.398 8.28246 11.2498 9 11.2498C9.71754 11.2498 10.4274 11.398 11.085 11.685C11.3567 11.8011 11.5883 11.9946 11.751 12.2413C11.9137 12.4879 12.0003 12.777 12 13.0725V13.5Z" fill="#811F1F"/>
</svg>
