<svg width="18" height="18" viewBox="0 0 18 18" fill="none" xmlns="http://www.w3.org/2000/svg">
<rect width="18" height="18" fill="white"/>
<path d="M16.3073 9.24812L9.55725 1.74812C9.273 1.43162 8.727 1.43162 8.44275 1.74812L1.69275 9.24812C1.5956 9.35581 1.53182 9.48942 1.50919 9.63269C1.48655 9.77596 1.50603 9.92271 1.56525 10.0551C1.68525 10.3259 1.95375 10.4999 2.25 10.4999H3.75V15.7499C3.75 15.9488 3.82902 16.1395 3.96967 16.2802C4.11033 16.4209 4.30109 16.4999 4.5 16.4999H6.75C6.94892 16.4999 7.13968 16.4209 7.28033 16.2802C7.42099 16.1395 7.5 15.9488 7.5 15.7499V12.7499H10.5V15.7499C10.5 15.9488 10.579 16.1395 10.7197 16.2802C10.8603 16.4209 11.0511 16.4999 11.25 16.4999H13.5C13.6989 16.4999 13.8897 16.4209 14.0303 16.2802C14.171 16.1395 14.25 15.9488 14.25 15.7499V10.4999H15.75C15.8953 10.5005 16.0375 10.4588 16.1595 10.38C16.2815 10.3011 16.3779 10.1885 16.437 10.0558C16.4961 9.92309 16.5153 9.77607 16.4922 9.63266C16.4692 9.48925 16.4049 9.35564 16.3073 9.24812V9.24812Z" fill="#811F1F"/>
</svg>
